<svg xmlns="http://www.w3.org/2000/svg" width="81" height="81" viewBox="0 0 81 81">
    <g fill="none" fill-rule="evenodd">
        <g>
            <g>
                <g>
                    <g>
                        <path fill="#ffc107" d="M54.532 51.064c14.1 0 25.532-11.431 25.532-25.532S68.633 0 54.532 0 29 11.431 29 25.532c0 14.1 11.431 25.532 25.532 25.532z" opacity=".399" transform="translate(-819 -696) translate(160 410) translate(600 286) translate(59)"/>
                        <g fill="#ffc107" fill-rule="nonzero">
                            <path d="M66.553.108c3.478 0 6.298 2.82 6.298 6.297v15.107c0 3.478-2.82 6.298-6.298 6.298H47.555c-.842 0-1.65.337-2.241.937l-4.285 4.34c-1.106 1.122-2.911 1.133-4.032.027-.543-.535-.848-1.266-.848-2.029V6.405c0-3.478 2.82-6.297 6.298-6.297zm0 1.702H42.447c-2.538 0-4.596 2.057-4.596 4.595v24.68c0 .307.123.602.342.818l.1.088c.454.355 1.11.32 1.525-.099l4.284-4.341c.912-.924 2.155-1.443 3.453-1.443h18.998c2.538 0 4.596-2.058 4.596-4.596V6.405c0-2.538-2.058-4.595-4.596-4.595zm-1.84 13.873c.48-.002.872.385.874.865.002.444-.328.811-.756.867l-.11.007-13.717.065c-.48.003-.871-.385-.874-.865-.002-.443.328-.81.757-.867l.109-.007 13.717-.065zm.002-7c.48-.002.87.386.872.867.001.443-.33.81-.758.865l-.109.007-19.717.065c-.48.002-.871-.386-.873-.866-.001-.444.33-.81.758-.866l.11-.007 19.717-.065z" transform="translate(-819 -696) translate(160 410) translate(600 286) translate(59) translate(0 7.915) matrix(-1 0 0 1 109 0)"/>
                            <path d="M54.553 30.085c3.008 0 5.447 2.439 5.447 5.447v33.337c0 1.792-1.452 3.244-3.244 3.244-.897 0-1.755-.372-2.368-1.028l-4.427-4.732c-.756-.809-1.814-1.268-2.921-1.268H5.447C2.439 65.085 0 62.646 0 59.638V35.532c0-3.008 2.439-5.447 5.447-5.447h49.106zm0 1.702H5.447c-2.002 0-3.636 1.57-3.74 3.546l-.005.199v24.106c0 2.002 1.57 3.636 3.546 3.74l.199.005H47.04c1.485 0 2.908.58 3.97 1.609l.194.198 4.427 4.732c.291.312.699.489 1.125.489.804 0 1.465-.616 1.536-1.401l.006-.14V35.531c0-2.002-1.57-3.636-3.546-3.74l-.199-.005zM50.215 53.65c.48 0 .87.387.872.868.001.443-.33.81-.758.864l-.11.007-25.717.066c-.48 0-.87-.387-.872-.868 0-.443.33-.81.759-.864l.109-.007 25.717-.066zm0-7c.481 0 .871.388.872.868 0 .444-.33.81-.76.864l-.108.007-38.718.066c-.48 0-.87-.388-.87-.868-.001-.444.33-.81.758-.864l.11-.007 38.717-.066zm0-8c.481 0 .871.388.872.868 0 .444-.33.81-.76.864l-.108.007-38.718.066c-.48 0-.87-.388-.87-.868-.001-.444.33-.81.758-.864l.11-.007 38.717-.066z" transform="translate(-819 -696) translate(160 410) translate(600 286) translate(59) translate(0 7.915) matrix(-1 0 0 1 60 0)"/>
                        </g>
                    </g>
                </g>
            </g>
        </g>
    </g>
</svg>
