<svg xmlns="http://www.w3.org/2000/svg" width="82" height="80" viewBox="0 0 82 80">
    <g fill="none" fill-rule="evenodd">
        <path fill="#ffc107" d="M55.859 79.075c13.926 0 25.216-11.29 25.216-25.216 0-13.927-11.29-25.217-25.216-25.217-13.927 0-25.217 11.29-25.217 25.217 0 13.926 11.29 25.216 25.217 25.216z" opacity=".399"/>
        <path fill="#ffc107" fill-rule="nonzero" d="M24.553 0c7.257 0 13.31 5.153 14.7 12h3.136l.2.005c1.92.095 3.502 1.546 3.763 3.45l.023.205 1.885 22.085C50.604 36.626 53.23 36 56 36c9.941 0 18 8.059 18 18s-8.059 18-18 18c-9.605 0-17.453-7.524-17.973-17H11.004l-.412-.008-.412-.023C4.218 54.521-.276 49.4.017 43.464l.018-.288L2.1 15.7l.02-.2c.241-1.923 1.832-3.399 3.768-3.495L6.088 12h3.765c1.39-6.846 7.443-12 14.7-12zM56 38c-8.837 0-16 7.163-16 16s7.163 16 16 16 16-7.163 16-16-7.163-16-16-16zm11 15c.552 0 1 .448 1 1 0 .513-.386.936-.883.993L67 55H45c-.552 0-1-.448-1-1 0-.513.386-.936.883-.993L45 53h22zM9.586 14H6.088l-.155.006c-.922.071-1.677.769-1.82 1.681l-.02.163L2.03 43.326l-.016.265c-.223 4.844 3.449 9.018 8.317 9.384l.337.019.337.006h27.023c.33-6.011 3.608-11.237 8.414-14.255l-.101.008-1.958-22.923-.019-.154c-.148-.905-.897-1.596-1.81-1.67L42.388 14h-2.87c.016.227.026.456.03.686l.004.314v5c0 .552-.448 1-1 1-.513 0-.936-.386-.994-.883L37.553 20v-5c0-.336-.013-.67-.038-1H11.59c-.018.23-.03.46-.035.693l-.003.307v5c0 .552-.448 1-1 1-.513 0-.936-.386-.994-.883L9.553 20v-5c0-.336.01-.67.033-1zM24.553 2C18.406 2 13.255 6.267 11.9 12h25.304C35.85 6.267 30.7 2 24.553 2z"/>
    </g>
</svg>
